<?xml version="1.0" encoding="UTF-8" standalone="no"?>
<!-- Created with Inkscape (http://www.inkscape.org/) -->

<svg
   width="28.334385mm"
   height="20.158001mm"
   viewBox="0 0 100.39743 71.425987"
   id="svg4258"
   version="1.1"
   inkscape:version="1.3.2 (091e20e, 2023-11-25, custom)"
   sodipodi:docname="apeture.svg"
   xmlns:inkscape="http://www.inkscape.org/namespaces/inkscape"
   xmlns:sodipodi="http://sodipodi.sourceforge.net/DTD/sodipodi-0.dtd"
   xmlns="http://www.w3.org/2000/svg"
   xmlns:svg="http://www.w3.org/2000/svg"
   xmlns:rdf="http://www.w3.org/1999/02/22-rdf-syntax-ns#"
   xmlns:cc="http://creativecommons.org/ns#"
   xmlns:dc="http://purl.org/dc/elements/1.1/">
  <defs
     id="defs4260" />
  <sodipodi:namedview
     id="base"
     pagecolor="#ffffff"
     bordercolor="#666666"
     borderopacity="1.0"
     inkscape:pageopacity="0.0"
     inkscape:pageshadow="2"
     inkscape:zoom="13.175033"
     inkscape:cx="58.671581"
     inkscape:cy="34.724771"
     inkscape:document-units="px"
     inkscape:current-layer="layer1"
     showgrid="false"
     fit-margin-top="0"
     fit-margin-left="0"
     fit-margin-right="0"
     fit-margin-bottom="0"
     inkscape:window-width="2560"
     inkscape:window-height="1369"
     inkscape:window-x="3064"
     inkscape:window-y="171"
     inkscape:window-maximized="1"
     inkscape:showpageshadow="2"
     inkscape:pagecheckerboard="0"
     inkscape:deskcolor="#d1d1d1" />
  <metadata
     id="metadata4263">
    <rdf:RDF>
      <cc:Work
         rdf:about="">
        <dc:format>image/svg+xml</dc:format>
        <dc:type
           rdf:resource="http://purl.org/dc/dcmitype/StillImage" />
      </cc:Work>
    </rdf:RDF>
  </metadata>
  <g
     inkscape:label="Layer 1"
     inkscape:groupmode="layer"
     id="layer1"
     transform="translate(-314.57941,-386.79956)">
    <path
       inkscape:connector-curvature="0"
       d="m 365.70442,392.92156 c -5.10327,0 -9.91071,1.40523 -14.12645,3.69803 l 23.81527,17.30674 5.54704,-16.6411 c -4.43763,-2.66258 -9.68882,-4.36367 -15.23586,-4.36367 z m -20.33914,8.35753 c -5.62099,5.39912 -9.24505,12.86912 -9.24505,21.30062 0,1.84901 0.14792,3.5501 0.44376,5.32516 l 22.85379,-16.41923 -14.12646,-10.20655 z m 41.63976,0.96149 -9.02317,27.73518 h 16.19733 c 0.59169,-2.36673 1.18337,-4.80744 1.18337,-7.39605 0,-7.91377 -3.25427,-15.01398 -8.35753,-20.33913 z m -34.90936,23.81527 -12.94308,9.24506 c 4.06784,8.35754 11.83368,14.71814 21.30063,16.41924 z m 11.53785,11.31596 4.65951,14.57021 c 9.83674,-0.88752 18.19427,-6.50852 22.85379,-14.57021 z"
       id="path6564"
       style="fill:#e6e6e6;stroke-width:1.32" />
  </g>
</svg>
