<?xml version="1.0" encoding="UTF-8" standalone="no"?>
<!-- Generator: Adobe Illustrator 16.0.0, SVG Export Plug-In . SVG Version: 6.00 Build 0)  -->

<svg
   version="1.1"
   id="Layer_1"
   x="0px"
   y="0px"
   width="512px"
   height="512px"
   viewBox="0 0 512 512"
   enable-background="new 0 0 512 512"
   xml:space="preserve"
   sodipodi:docname="bulb_dark.svg"
   inkscape:version="1.3.2 (091e20e, 2023-11-25, custom)"
   xmlns:inkscape="http://www.inkscape.org/namespaces/inkscape"
   xmlns:sodipodi="http://sodipodi.sourceforge.net/DTD/sodipodi-0.dtd"
   xmlns="http://www.w3.org/2000/svg"
   xmlns:svg="http://www.w3.org/2000/svg"><defs
   id="defs1" /><sodipodi:namedview
   id="namedview1"
   pagecolor="#ffffff"
   bordercolor="#000000"
   borderopacity="0.25"
   inkscape:showpageshadow="2"
   inkscape:pageopacity="0.0"
   inkscape:pagecheckerboard="0"
   inkscape:deskcolor="#d1d1d1"
   inkscape:zoom="2.291023"
   inkscape:cx="255.56269"
   inkscape:cy="255.99917"
   inkscape:window-width="2560"
   inkscape:window-height="1369"
   inkscape:window-x="3064"
   inkscape:window-y="171"
   inkscape:window-maximized="1"
   inkscape:current-layer="Layer_1" />
<path
   d="m 161.2171,199.60996 c -4.17225,-12.58575 2.625,-26.17951 15.1875,-30.375 l 144,-48 c 12.65625,-4.266 26.1795,2.625 30.35175,15.1875 4.1955,12.5625 -2.60175,26.15625 -15.16425,30.35175 l -144,48 c -2.53125,0.84375 -5.08575,1.24199 -7.59375,1.24199 -10.0545,0 -19.40625,-6.37499 -22.78125,-16.40624 z m 22.78125,-55.54725 c 2.508,0 5.0625,-0.42225 7.59375,-1.266 l 96,-31.992 c 12.5625,-4.1955 19.35975,-17.789253 15.16425,-30.351753 -4.1955,-12.5625 -17.71875,-19.45275 -30.35175,-15.18675 l -96,32.016 c -12.5625,4.172253 -19.35975,17.766003 -15.1875,30.351753 3.375,10.05375 12.72675,16.42875 22.78125,16.42875 z m 24.21075,171.9375 h 47.3205 c 0.46875,-2.8125 0.60975,-5.71875 0,-8.67226 -2.6955,-13.57049 -8.53125,-25.92224 -16.73475,-36.28124 l 96.79725,-32.27325 c 12.5625,-4.1955 19.35975,-17.78925 15.16425,-30.35175 -4.17225,-12.5625 -17.6955,-19.40625 -30.35175,-15.1875 l -144,48 c -10.3125,3.4455 -17.03925,13.40625 -16.35975,24.28125 0.6795,10.85175 8.5785,19.89825 19.266,22.03125 14.53125,2.883 25.73475,14.03925 28.89825,28.4535 z m 119.78925,-55.5 c -38.15625,0 -69.1875,29.9295 -71.53125,67.5 h -48.46875 c -13.266,0 -24,10.73475 -24,24 v 24 c 0,13.266 10.73475,24 24,24 v 24 c 0,13.266 10.73475,24 24,24 h 48 c 13.266,0 24,-10.73475 24,-24 v -24 c 13.266,0 24,-10.73475 24,-24 v -24 c 0,-12.96075 -10.28925,-23.34375 -23.133,-23.8125 2.10975,-11.109 11.41425,-19.6875 23.133,-19.6875 13.266,0 24,-10.73475 24,-24 0,-13.26526 -10.734,-24 -24,-24 z"
   style="fill:#333333;stroke-width:0.75"
   id="path1"
   inkscape:label="path1" />
</svg>
