<?xml version="1.0" encoding="UTF-8" standalone="no"?>
<!-- Generator: Adobe Illustrator 16.0.0, SVG Export Plug-In . SVG Version: 6.00 Build 0)  -->

<svg
   version="1.1"
   id="Layer_1"
   x="0px"
   y="0px"
   width="512px"
   height="512px"
   viewBox="0 0 512 512"
   enable-background="new 0 0 512 512"
   xml:space="preserve"
   sodipodi:docname="bulb-light.svg"
   inkscape:version="1.3.2 (091e20e, 2023-11-25, custom)"
   xmlns:inkscape="http://www.inkscape.org/namespaces/inkscape"
   xmlns:sodipodi="http://sodipodi.sourceforge.net/DTD/sodipodi-0.dtd"
   xmlns="http://www.w3.org/2000/svg"
   xmlns:svg="http://www.w3.org/2000/svg"><defs
   id="defs1" /><sodipodi:namedview
   id="namedview1"
   pagecolor="#ffffff"
   bordercolor="#000000"
   borderopacity="0.25"
   inkscape:showpageshadow="2"
   inkscape:pageopacity="0.0"
   inkscape:pagecheckerboard="0"
   inkscape:deskcolor="#d1d1d1"
   inkscape:zoom="1.6199927"
   inkscape:cx="255.55671"
   inkscape:cy="255.86535"
   inkscape:window-width="2560"
   inkscape:window-height="1369"
   inkscape:window-x="5624"
   inkscape:window-y="171"
   inkscape:window-maximized="1"
   inkscape:current-layer="Layer_1" />
<path
   d="m 163.46664,199.19116 c -4.17224,-12.58583 2.62502,-26.17962 15.18757,-30.37511 l 144.00046,-48.00016 c 12.65627,-4.26601 26.17959,2.625 30.35184,15.18754 4.19551,12.56255 -2.60176,26.15635 -15.16431,30.35186 l -144.00046,48.00016 c -2.53126,0.84375 -5.08579,1.24198 -7.59377,1.24198 -10.05453,0 -19.40631,-6.37502 -22.78133,-16.40627 z m 22.78133,-55.54746 c 2.50798,0 5.06251,-0.42224 7.59377,-1.26599 L 289.84205,110.3856 C 302.4046,106.19009 309.20187,92.596288 305.00634,80.033751 300.81082,67.47121 287.28756,60.580937 274.65452,64.84695 l -96.00031,32.016098 c -12.56255,4.172272 -19.35981,17.766062 -15.18757,30.351852 3.37502,10.05379 12.7268,16.4288 22.78133,16.4288 z m 24.21082,171.93809 h 47.32066 c 0.46876,-2.81251 0.60975,-5.71878 0,-8.67232 -2.69551,-13.57051 -8.53128,-25.92231 -16.7348,-36.28135 l 96.79755,-32.27334 c 12.56255,-4.19553 19.35982,-17.78933 15.16431,-30.35188 -4.17225,-12.56253 -17.69557,-19.40631 -30.35184,-15.18751 l -144.00046,48.00014 c -10.31257,3.4455 -17.03933,13.40631 -16.35981,24.28131 0.6795,10.85182 8.57851,19.89833 19.26605,22.03136 14.53128,2.88301 25.73485,14.03927 28.89834,28.45359 z m 119.78965,-55.5002 c -38.1564,0 -69.18771,29.92962 -71.53148,67.50021 h -48.46891 c -13.26606,0 -24.00008,10.7348 -24.00008,24.00008 v 24.00008 c 0,13.26606 10.73477,24.00007 24.00008,24.00007 v 24.00008 c 0,13.26607 10.73478,24.00008 24.00008,24.00008 h 48.00015 c 13.26603,0 24.00008,-10.73476 24.00008,-24.00008 v -24.00008 c 13.26604,0 24.00008,-10.73476 24.00008,-24.00007 v -24.00008 c 0,-12.96077 -10.28928,-23.34382 -23.1331,-23.81258 2.10977,-11.10901 11.41431,-19.68756 23.1331,-19.68756 13.26602,0 24.00008,-10.73479 24.00008,-24.00007 0,-13.26531 -10.73406,-24.00008 -24.00008,-24.00008 z"
   style="fill:#e6e6e6;stroke-width:0.750005"
   id="path1" />
</svg>
