<?xml version="1.0" encoding="UTF-8" standalone="no"?>
<svg
   width="800px"
   height="800px"
   viewBox="0 0 512 512"
   version="1.1"
   id="svg1"
   sodipodi:docname="laser.svg"
   inkscape:version="1.3.2 (091e20e, 2023-11-25, custom)"
   xmlns:inkscape="http://www.inkscape.org/namespaces/inkscape"
   xmlns:sodipodi="http://sodipodi.sourceforge.net/DTD/sodipodi-0.dtd"
   xmlns="http://www.w3.org/2000/svg"
   xmlns:svg="http://www.w3.org/2000/svg">
  <defs
     id="defs1" />
  <sodipodi:namedview
     id="namedview1"
     pagecolor="#ffffff"
     bordercolor="#000000"
     borderopacity="0.25"
     inkscape:showpageshadow="2"
     inkscape:pageopacity="0.0"
     inkscape:pagecheckerboard="0"
     inkscape:deskcolor="#d1d1d1"
     inkscape:zoom="1.46625"
     inkscape:cx="399.65899"
     inkscape:cy="400"
     inkscape:window-width="2560"
     inkscape:window-height="1369"
     inkscape:window-x="3064"
     inkscape:window-y="171"
     inkscape:window-maximized="1"
     inkscape:current-layer="svg1" />
  <path
     fill="#f7e842"
     d="m 256.70401,76.707882 c -22.8795,0.1275 -44.3835,17.019 -60.09375,47.227498 -0.045,0.0825 -0.0975,0.15 -0.1425,0.23475 l -98.037002,171.5625 -0.1635,0.28125 c -18.24975,28.7085 -22.09875,55.773 -10.78125,75.65625 11.31,19.872 36.470252,30.09375 70.125002,28.4295 h 198.843 c 33.654,1.6635 58.8135,-8.5575 70.125,-28.431 11.319,-19.887 7.4775,-46.9635 -10.78125,-75.6795 l -0.165,-0.258 -99.093,-172.0995 c -0.0562,-0.11025 -0.13125,-0.195 -0.1875,-0.3045 -15.38475,-30.026998 -36.789,-46.742998 -59.6475,-46.617748 z m -0.21,14.13375 c 10.17975,-0.099 19.884,4.85625 28.61625,13.334998 8.6685,8.42025 16.794,20.44725 24.819,36.1425 l 87.51675,151.96725 0.165,0.2565 c 9.05025,14.2005 15.4275,27.0165 18.67875,38.67225 3.2715,11.73 3.405,22.65 -1.125,31.8285 -4.53,9.1785 -13.4775,15.6375 -25.3125,19.26525 -11.75625,3.6045 -26.67,4.78725 -45.3045,3.84375 h -175.3605 c -17.175,0.86775 -31.473,-0.12 -43.0545,-3.375 -11.67,-3.27975 -20.9055,-9.11025 -26.085,-17.9295 -5.182502,-8.82 -5.817002,-19.8 -2.883752,-31.806 2.914502,-11.928 9.274502,-25.2735 18.960002,-40.476 l 86.6025,-151.4535 c 0.0473,-0.09 0.0937,-0.1665 0.141,-0.258 8.1375,-15.6675 16.3275,-27.74775 25.03125,-36.25725 8.75475,-8.559748 18.4125,-13.659748 28.59375,-13.758748 z m 0.1395,14.015998 c -5.62725,0.054 -11.82375,2.8185 -18.9375,9.7725 -7.11375,6.9555 -14.7675,17.958 -22.5225,32.93025 l -0.0712,0.141 -0.0705,0.117 -53.0385,92.76525 46.21875,0.1425 -23.4375,-13.524 7.008,-12.141 38.298,22.125 c 0.9615,-1.07025 2.01,-2.0775 3.09375,-3.0225 l -22.149,-38.3445 12.14025,-7.008 22.17225,38.391 c 1.33875,-0.4395 2.7225,-0.78 4.125,-1.05525 v -44.3895 h 14.01525 v 44.53125 c 1.368,0.29475 2.70225,0.672 4.008,1.125 l 22.28775,-38.6025 12.11775,7.008 -22.35975,38.71875 c 1.005,0.9045 1.965,1.8675 2.8605,2.88225 l 38.76525,-22.35975 7.00875,12.141 -38.766,22.38225 c 0.4245,1.2765 0.78,2.58 1.05525,3.915 h 44.742 v 14.016 h -44.742 c -0.27525,1.3425 -0.63,2.6535 -1.0545,3.9375 l 38.76525,22.359 -7.008,12.117 -38.718,-22.335 c -0.9,1.023 -1.87125,1.992 -2.883,2.9055 l 22.3365,38.6955 -12.117,7.008 -22.26825,-38.55675 c -1.3125,0.456 -2.655,0.82875 -4.03125,1.125 v 44.46225 h -14.016 v -44.3205 c -1.41,-0.28125 -2.805,-0.6555 -4.1475,-1.1025 l -22.149,38.391 -12.141,-7.008 22.17225,-38.391 c -1.0725,-0.9525 -2.073,-1.9725 -3.0225,-3.0465 l -38.3925,22.1715 -7.00725,-12.117 22.73475,-13.12425 h -68.4375 l -10.78125,18.84375 -0.0937,0.165 -0.0937,0.1395 c -9.27225,14.51175 -14.946,26.82225 -17.32125,36.53925 -2.373,9.71775 -1.5375,16.44 1.3605,21.375 2.89875,4.935 8.36475,8.90625 17.7885,11.5545 9.42525,2.649 22.51875,3.7125 38.907,2.85975 l 0.1875,-0.0247 h 175.71 l 0.1875,0.024 c 17.8005,0.92475 31.41975,-0.351 40.827,-3.2355 9.408,-2.88375 14.31,-6.9915 16.8285,-12.09375 2.5185,-5.1015 2.91,-12.16875 0.21,-21.843 -2.69775,-9.6735 -8.4825,-21.585 -17.1555,-35.15625 l -0.0705,-0.1395 -0.0937,-0.141 -87.702,-152.2275 -0.0705,-0.16275 -0.0937,-0.165 c -7.64625,-15.0075 -15.21225,-25.938 -22.242,-32.766 -7.03125,-6.82725 -13.10025,-9.429 -18.7275,-9.375 z m -0.492,134.6475 c -8.10525,0 -15.2925,4.80225 -18.75,11.532 l -1.9455,3.81975 -4.3125,-0.024 -76.8285,-0.2565 -6.9375,12.09375 h 88.431 l 1.99125,3.70275 c 3.552,6.645 10.35,11.1795 18.3525,11.1795 11.6025,0 21.0225,-9.42 21.0225,-21.0225 0,-11.60475 -9.42,-21.024 -21.0225,-21.024 z"
     id="path1"
     style="stroke-width:0.75" />
</svg>
